<svg xmlns="http://www.w3.org/2000/svg" viewBox="0 0 512 512">
  <path fill="#0d6efd" d="M471 32c26.5 0 48 21.5 48 48v96c0 17.7-14.3 32-32 32H352c-17.7 0-32-14.3-32-32V72c0-17.7 14.3-32 32-32h64c6.7 0 12-5.3 12-12s-5.3-12-12-12H352c-26.5 0-48 21.5-48 48v96c0 35.3 28.7 64 64 64h119c17.7 0 32-14.3 32-32V80c0-26.5-21.5-48-48-48H471zM173.7 391.4L71.4 493.7c-4.7 4.7-12.3 4.7-17 0l-40-40c-4.7-4.7-4.7-12.3 0-17L244.6 239.4c4.7-4.7 12.3-4.7 17 0l40 40c4.7 4.7 4.7 12.3 0 17L173.7 391.4zM107.9 424.1l65.6 65.6c3.1 3.1 7.2 4.7 11.3 4.7s8.2-1.6 11.3-4.7l40-40c3.1-3.1 4.7-7.2 4.7-11.3s-1.6-8.2-4.7-11.3L179.1 352.9c-3.1-3.1-7.2-4.7-11.3-4.7s-8.2 1.6-11.3 4.7l-40 40c-3.1 3.1-4.7 7.2-4.7 11.3s1.6 8.2 4.7 11.3z"/>
  <path fill="#0d6efd" d="M320 320c-17.7 0-32 14.3-32 32v128c0 17.7 14.3 32 32 32h32c17.7 0 32-14.3 32-32V352c0-17.7-14.3-32-32-32H320zm-96 32c-17.7 0-32 14.3-32 32v96c0 17.7 14.3 32 32 32h32c17.7 0 32-14.3 32-32v-96c0-17.7-14.3-32-32-32H224zM96 320c-17.7 0-32 14.3-32 32v160c0 17.7 14.3 32 32 32h32c17.7 0 32-14.3 32-32V352c0-17.7-14.3-32-32-32H96zM480 160c17.7 0 32-14.3 32-32V32c0-17.7-14.3-32-32-32H416c-17.7 0-32 14.3-32 32v96c0 17.7 14.3 32 32 32h64zM288 160c17.7 0 32-14.3 32-32V32c0-17.7-14.3-32-32-32H224c-17.7 0-32 14.3-32 32v96c0 17.7 14.3 32 32 32h64zM96 160c17.7 0 32-14.3 32-32V32c0-17.7-14.3-32-32-32H32c-17.7 0-32 14.3-32 32v96c0 17.7 14.3 32 32 32h64z"/>
</svg>